OpenSim_Sub04_CSStiffKnee_RCS.mot
version=1
nRows=41
nColumns=11
inDegrees=no
endheader
time	Top_Thigh	Med_Thigh	Bot_Thigh	Top_Shank	2nd_Top_Shank	2nd_Bot_Shank	Bot_Shank	BNOx	BNOy	BNOZ
55.59000000	1394.27935691	1339.92616297	1257.72435632	1085.94349170	1220.98962316	1120.00037030	1039.89890285	37.06644938	-72.41362971	156.30389733
55.60000000	1393.97130148	1340.00526323	1258.02075269	1086.00423335	1220.99893681	1119.99995087	1040.00913501	37.76134533	-72.29661240	154.84909631
55.61000000	1393.71443629	1340.02392126	1258.11923923	1086.01751580	1220.96362366	1119.99939648	1040.07727137	38.49840822	-72.14174759	153.27353219
55.62000000	1393.52186594	1339.98308015	1258.03993820	1085.96406281	1220.88612039	1119.99881663	1040.10883835	39.28090133	-71.94997245	151.58179804
55.63000000	1393.40720652	1339.88598596	1257.81208905	1085.82399534	1220.77026267	1119.99833887	1040.11188929	40.11240122	-71.72307436	149.78073452
55.64000000	1393.38407412	1339.73588478	1257.46493121	1085.57743436	1220.61988613	1119.99809076	1040.09447756	40.99648446	-71.46284069	147.87718230
55.65000000	1393.46608484	1339.53602267	1257.02770412	1085.20450083	1220.43882640	1119.99819988	1040.06465653	41.93672762	-71.17105883	145.87798203
55.66000000	1393.66685477	1339.28964572	1256.52964724	1084.68531572	1220.23091915	1119.99879377	1040.03047956	42.93670728	-70.84951614	143.78997438
55.67000000	1394	1339	1256	1084	1220	1120	1040	44	-70.50000000	141.62000000
55.68000000	1394.45995457	1338.66849190	1255.45621622	1083.14868487	1219.75246042	1120.00184791	1039.97960688	45.13600443	-70.11738250	139.37773694
55.69000000	1394.96442434	1338.28916908	1254.86860724	1082.21154252	1219.50491517	1120.00397389	1039.96903184	46.37740755	-69.66887455	137.08421273
55.70000000	1395.41193312	1337.85423954	1254.19569876	1081.28875537	1219.27653483	1120.00591614	1039.96634219	47.76271843	-69.11477179	134.76329228
55.71000000	1395.70100472	1337.35591126	1253.39601650	1080.48050584	1219.08648996	1120.00721284	1039.96960523	49.33044612	-68.41536984	132.43884053
55.72000000	1395.73016294	1336.78639223	1252.42808616	1079.88697635	1218.95395114	1120.00740216	1039.97688827	51.11909968	-67.53096432	130.13472237
55.73000000	1395.39793161	1336.13789043	1251.25043347	1079.60834934	1218.89808896	1120.00602228	1039.98625860	53.16718818	-66.42185087	127.87480273
55.74000000	1394.60283451	1335.40261384	1249.82158413	1079.74480722	1218.93807398	1120.00261139	1039.99578353	55.51322067	-65.04832511	125.68294653
55.75000000	1393.24992993	1334.57451848	1248.10494538	1080.39171640	1219.09194365	1119.99676185	1040.00357354	58.19195112	-63.37388984	123.58232066
55.76000000	1391.39456866	1333.68776497	1246.17619961	1081.53367508	1219.35167336	1119.98931211	1040.00873222	61.15176618	-61.43581269	121.58003771
55.77000000	1389.24239403	1332.81671850	1244.22330436	1083.04451317	1219.68317643	1119.98234673	1040.01135627	64.25468518	-59.34512613	119.66715594
55.78000000	1387.00558380	1332.03749232	1242.43909870	1084.79324463	1220.05123307	1119.97800446	1040.01158555	67.35897238	-57.21606982	117.83403561
55.79000000	1384.89631578	1331.42619966	1241.01642171	1086.64888338	1220.42062346	1119.97842403	1040.00955994	70.32289200	-55.16288339	116.07103696
55.80000000	1383.12676773	1331.05895375	1240.14811244	1088.48044336	1220.75612782	1119.98574419	1040.00541931	73.00470829	-53.29980650	114.36852024
55.81000000	1381.90906102	1331.01184056	1240.02693738	1090.15695872	1221.02253458	1120.00210204	1039.99930379	75.26270762	-51.74105988	112.71688346
55.82000000	1381.38044808	1331.32475371	1240.74933763	1091.57430955	1221.19559448	1120.02747034	1039.99170890	76.98453800	-50.57580385	111.15661153
55.83000000	1381.45571852	1331.93004624	1242.12553645	1092.70814488	1221.28363103	1120.05539073	1039.98418600	78.14509160	-49.81873489	109.87701586
55.84000000	1382.00853197	1332.74018855	1243.91283986	1093.54886181	1221.30099001	1120.07821586	1039.97848172	78.73539067	-49.47078232	109.09492361
55.85000000	1382.91254808	1333.66765108	1245.86855389	1094.08685745	1221.26201717	1120.08829837	1039.97634266	78.74645749	-49.53287544	109.02716190
55.86000000	1384.04142649	1334.62490424	1247.74998455	1094.31252888	1221.18105826	1120.07799090	1039.97951543	78.16931431	-50.00594354	109.89055788
55.87000000	1385.26882684	1335.52441846	1249.31443785	1094.21627322	1221.07245904	1120.03964610	1039.98974664	76.99498340	-50.89091592	111.90193870
55.88000000	1386.46946982	1336.27964161	1250.32304670	1093.78926077	1220.95029779	1119.96594099	1040.00870390	75.21547575	-52.18766849	115.26924892
55.89000000	1387.55932376	1336.84201955	1250.68571446	1093.05272098	1220.81825435	1119.86216298	1040.03498412	72.86123943	-53.85512609	119.85512327
55.90000000	1388.50793919	1337.21235892	1250.50560256	1092.06693110	1220.66650065	1119.74998080	1040.06319524	70.01265362	-55.79901671	125.07362675
55.91000000	1389.28844762	1337.39476520	1249.89878818	1090.89477805	1220.48430584	1119.65215801	1040.08767860	66.75343446	-57.92151310	130.30884570
55.92000000	1389.87398055	1337.39334388	1248.98134851	1089.59914871	1220.26093909	1119.59145812	1040.10277554	63.16729812	-60.12478800	134.94486647
55.93000000	1390.23766951	1337.21220047	1247.86936076	1088.24293000	1219.98566956	1119.59064469	1040.10282742	59.33796073	-62.31101416	138.36577540
55.94000000	1390.35264599	1336.85544043	1246.67890209	1086.88900882	1219.64776643	1119.67248123	1040.08217557	55.34913847	-64.38236433	139.95565882
55.95000000	1390.19204151	1336.32716928	1245.52604971	1085.60027206	1219.23649885	1119.85973129	1040.03516134	51.28454747	-66.24101126	139.09860308
55.96000000	1389.73069499	1335.63218324	1244.52400119	1084.43806189	1218.74180816	1120.17406167	1039.95639952	47.22666847	-67.79189471	135.19890299
55.97000000	1388.98271593	1334.79116576	1243.71972294	1083.42819140	1218.16909582	1120.61191422	1039.84679415	43.22956717	-69.00359560	128.12564847
55.98000000	1388.00148442	1333.84068744	1243.09395022	1082.56094461	1217.53922340	1121.14450584	1039.71353853	39.31889430	-69.90833600	118.21272452
55.99000000	1386.84208794	1332.81800967	1242.62453865	1081.82506079	1216.87372463	1121.74195669	1039.56409938	35.51906514	-70.54110502	105.81422460
